<svg xmlns="http://www.w3.org/2000/svg" width="48" height="48"><g class="nc-icon-wrapper"><path fill="#E86C60" d="M44.5 10.5c-1.5-.9-3.4-.9-5-.1L27 17.3c-.5.3-.7.9-.4 1.4.2.3.5.5.9.5v9.6c-.4 0-.7.2-.9.5-.3.5-.1 1.1.4 1.4l12.5 6.9c.8.4 1.6.6 2.4.6.9 0 1.7-.2 2.5-.7 1.5-.9 2.5-2.5 2.5-4.3V14.8c.1-1.8-.8-3.4-2.4-4.3zM20.4 28.8v-9.6c.4 0 .7-.2.9-.5.3-.5.1-1.1-.4-1.4L8.4 10.4c-1.6-.9-3.4-.8-5 .1C1.9 11.4 1 13 1 14.8v18.4c0 1.8.9 3.4 2.5 4.3.8.5 1.6.7 2.5.7.8 0 1.7-.2 2.4-.6l12.5-6.9c.5-.3.7-.9.4-1.4-.2-.3-.5-.5-.9-.5z"/><path fill="#C64B4B" d="M34 23h-6c-.6 0-1 .4-1 1s.4 1 1 1h6c.6 0 1-.4 1-1s-.4-1-1-1zm-14 0h-6c-.6 0-1 .4-1 1s.4 1 1 1h6c.6 0 1-.4 1-1s-.4-1-1-1z"/><path fill="#EFD358" d="M24 15c-2.8 0-5 2.2-5 5v8c0 2.8 2.2 5 5 5s5-2.2 5-5v-8c0-2.8-2.2-5-5-5z"/></g></svg>